<svg xmlns="http://www.w3.org/2000/svg" width="182.026" height="182.026" viewBox="0 0 182.026 182.026" xml:space="preserve">
  <path d="M31.859 91.005c0-29.508 21.753-53.977 50.061-58.382v12.881l36.396-22.755L81.913 0v14.222C43.525 18.767 13.647 51.44 13.647 91.006c0 27.809 14.789 52.153 36.849 65.778l17.853-11.141c-21.41-8.926-36.49-30.041-36.49-54.638m99.666-65.768-17.851 11.157c21.418 8.892 36.499 30.012 36.499 54.611 0 29.532-21.749 53.985-50.058 58.396v-12.887l-36.402 22.764 36.402 22.747v-14.244c38.386-4.53 68.263-37.199 68.263-76.776.001-27.798-14.788-52.14-36.853-65.768"/>
  <path d="M95.401 130.802v-9.942c11.204-1.953 17.362-9.362 17.362-18.041 0-8.777-4.679-14.134-16.275-18.241-8.298-3.121-11.716-5.166-11.716-8.383 0-2.733 2.045-5.464 8.395-5.464 7.015 0 11.496 2.235 14.041 3.319l2.819-11.023c-3.203-1.557-7.602-2.919-14.131-3.208v-8.586h-9.562v9.261c-10.42 2.041-16.473 8.777-16.473 17.355 0 9.458 7.123 14.344 17.568 17.846 7.204 2.441 10.323 4.782 10.323 8.493 0 3.896-3.796 6.041-9.354 6.041-6.336 0-12.093-2.048-16.183-4.29L69.29 117.35c3.693 2.148 10.041 3.899 16.569 4.189v9.264h9.542z"/>
</svg>
